<svg width="513" height="513" viewBox="0 0 513 513" fill="none" xmlns="http://www.w3.org/2000/svg">
<path d="M0 128.047C0.0338743 99.7673 11.2828 72.6559 31.2794 52.6594C51.2759 32.6628 78.3873 21.4139 106.667 21.38C127.21 21.3049 147.328 27.237 164.544 38.4467C176.463 26.2747 190.691 16.6044 206.396 10.0025C222.1 3.4006 238.964 0 256 0C273.036 0 289.9 3.4006 305.604 10.0025C321.309 16.6044 335.537 26.2747 347.456 38.4467C364.672 27.237 384.79 21.3049 405.333 21.38C431.786 21.3534 457.304 31.1567 476.935 48.8866C496.566 66.6166 508.909 91.0084 511.567 117.327C514.226 143.645 507.01 170.012 491.321 191.31C475.633 212.608 452.59 227.316 426.667 232.58V384.047H85.3333V232.58C61.255 227.632 39.6193 214.533 24.0745 195.491C8.5298 176.448 0.0270343 152.628 0 128.047ZM85.3333 426.713V512.047H426.667V426.713H85.3333Z" fill="#FFFFFF"/>
</svg>
