<svg width="512" height="512" viewBox="0 0 512 512" fill="none" xmlns="http://www.w3.org/2000/svg">
<path d="M333.717 178.133C336.823 181.176 339.096 184.964 340.317 189.137C341.539 193.309 341.668 197.726 340.693 201.963L284.203 352.213C283.115 355.262 281.114 357.901 278.473 359.772C275.831 361.642 272.677 362.653 269.44 362.667C266.532 362.765 263.653 362.066 261.115 360.644C258.576 359.223 256.476 357.133 255.04 354.603L235.669 291.115C234.599 287.593 232.636 284.409 229.97 281.87C227.305 279.332 224.028 277.527 220.459 276.629L160.341 261.696C157.177 260.619 154.422 258.594 152.451 255.895C150.479 253.196 149.388 249.955 149.325 246.613C149.262 243.271 150.231 239.991 152.099 237.22C153.967 234.449 156.644 232.32 159.765 231.125L310.379 171.392C314.52 170.406 318.846 170.508 322.936 171.69C327.026 172.871 330.74 175.091 333.717 178.133ZM512 256C512 306.632 496.986 356.127 468.856 398.226C440.727 440.325 400.745 473.137 353.967 492.513C307.189 511.889 255.716 516.959 206.057 507.081C156.398 497.203 110.783 472.822 74.9808 437.019C39.1785 401.217 14.7969 355.602 4.91908 305.943C-4.95873 256.284 0.110921 204.811 19.487 158.033C38.863 111.255 71.6751 71.2734 113.774 43.1438C155.873 15.0141 205.368 0 256 0C323.873 0.0734097 388.945 27.0683 436.938 75.0618C484.932 123.055 511.927 188.127 512 256ZM363.797 147.883C355.412 139.448 344.945 133.38 333.459 130.293C321.972 127.206 309.874 127.209 298.389 130.304C297.557 130.539 144.192 191.403 144.192 191.403C132.789 195.85 123.055 203.74 116.345 213.976C109.634 224.213 106.281 236.285 106.75 248.516C107.219 260.747 111.488 272.527 118.964 282.219C126.439 291.91 136.748 299.032 148.459 302.592L198.507 315.115L214.997 368.96C219.385 379.722 226.882 388.932 236.531 395.411C246.179 401.89 257.541 405.345 269.163 405.333H270.101C281.9 405.181 293.376 401.46 303.018 394.659C312.66 387.857 320.016 378.296 324.117 367.232C324.117 367.232 381.568 214.379 381.717 213.632C384.796 202.066 384.76 189.891 381.612 178.344C378.465 166.796 372.319 156.287 363.797 147.883Z" fill="#F0474A"/>
</svg>
