<svg width="512" height="512" viewBox="0 0 512 512" fill="none" xmlns="http://www.w3.org/2000/svg">
<g clip-path="url(#clip0_28_30)">
<path d="M256 0C114.837 0 0 114.837 0 256C0 397.163 114.837 512 256 512C397.163 512 512 397.163 512 256C512 114.837 397.163 0 256 0ZM256 469.333C138.368 469.333 42.6667 373.632 42.6667 256C42.6667 138.368 138.368 42.6667 256 42.6667C373.632 42.6667 469.333 138.368 469.333 256C469.333 373.632 373.632 469.333 256 469.333ZM170.667 256C170.667 273.664 156.331 288 138.667 288C121.003 288 106.667 273.664 106.667 256C106.667 238.336 121.003 224 138.667 224C156.331 224 170.667 238.336 170.667 256ZM405.333 256C405.333 273.664 390.997 288 373.333 288C355.669 288 341.333 273.664 341.333 256C341.333 238.336 355.669 224 373.333 224C390.997 224 405.333 238.336 405.333 256ZM288 256C288 273.664 273.664 288 256 288C238.336 288 224 273.664 224 256C224 238.336 238.336 224 256 224C273.664 224 288 238.336 288 256Z" fill="#1F222A"/>
</g>
<defs>
<clipPath id="clip0_28_30">
<rect width="512" height="512" fill="white"/>
</clipPath>
</defs>
</svg>
