<svg width="512" height="512" viewBox="0 0 512 512" fill="none" xmlns="http://www.w3.org/2000/svg">
<path d="M256 319.681C220.654 319.681 192 348.335 192 383.681V511.681H320V383.681C320 348.335 291.346 319.681 256 319.681Z" fill="#F0474A"/>
<path d="M362.667 383.681V511.681H448C483.346 511.681 512 483.027 512 447.681V253.1C512.005 242.017 507.698 231.367 499.989 223.404L318.699 27.4142C286.711 -7.1958 232.723 -9.3208 198.113 22.6672C196.469 24.1872 194.885 25.7702 193.366 27.4142L12.395 223.34C4.453 231.336 -0.00299849 242.15 1.51383e-06 253.42V447.681C1.51383e-06 483.027 28.654 511.681 64 511.681H149.333V383.681C149.732 325.509 196.699 278.005 253.406 276.637C312.01 275.223 362.22 323.536 362.667 383.681Z" fill="#F0474A"/>
<path d="M256 319.681C220.654 319.681 192 348.335 192 383.681V511.681H320V383.681C320 348.335 291.346 319.681 256 319.681Z" fill="#F0474A"/>
</svg>
