<svg width="200" height="200" viewBox="0 0 200 200" fill="none" xmlns="http://www.w3.org/2000/svg">
<path d="M191.558 45.4333C191.325 43.9583 188.958 30.7083 179.358 21.0333C169.717 11.6 156.417 9.26667 154.933 9.03333C152.958 8.70833 150.942 9.125 149.25 10.175C148.658 10.5417 139.967 15.9833 122.808 30.4917C131.633 33.6083 143.042 39.0167 152.292 48.0667C161.575 57.15 167.125 68.325 170.308 76.9917C184.642 60.2417 190.033 51.7583 190.392 51.175C191.458 49.4667 191.875 47.425 191.558 45.4333Z" fill="#F0474A"/>
<path d="M107.917 43.525C98.9749 51.5917 88.5666 61.3917 76.6499 73.225C26.1249 123.392 12.8749 143.45 12.3332 144.275C11.5749 145.442 11.1166 146.783 11.0082 148.167L8.34988 182.092C8.16655 184.525 9.04155 186.908 10.7666 188.633C12.3332 190.2 14.4582 191.075 16.6666 191.075C16.8749 191.075 17.0916 191.075 17.3082 191.05L51.4832 188.417C52.8582 188.308 54.1832 187.867 55.3416 187.125C56.1749 186.592 76.3666 173.433 126.883 123.275C139.067 111.175 149.117 100.642 157.342 91.6334C156.083 86.225 151.692 70.7917 140.633 59.9834C129.417 49.0084 113.283 44.7084 107.917 43.525Z" fill="#F0474A"/>
</svg>
