<svg width="256" height="256" viewBox="0 0 256 256" fill="none" xmlns="http://www.w3.org/2000/svg">
<path d="M224 96H160V32C160 23.5131 156.629 15.3737 150.627 9.37258C144.626 3.37141 136.487 0 128 0C119.513 0 111.374 3.37141 105.373 9.37258C99.3714 15.3737 96 23.5131 96 32V96H32C23.5131 96 15.3737 99.3714 9.37258 105.373C3.37141 111.374 0 119.513 0 128C0 136.487 3.37141 144.626 9.37258 150.627C15.3737 156.629 23.5131 160 32 160H96V224C96 232.487 99.3714 240.626 105.373 246.627C111.374 252.629 119.513 256 128 256C136.487 256 144.626 252.629 150.627 246.627C156.629 240.626 160 232.487 160 224V160H224C232.487 160 240.626 156.629 246.627 150.627C252.629 144.626 256 136.487 256 128C256 119.513 252.629 111.374 246.627 105.373C240.626 99.3714 232.487 96 224 96Z" fill="white"/>
</svg>
