<svg width="512" height="512" viewBox="0 0 512 512" fill="none" xmlns="http://www.w3.org/2000/svg">
<path d="M298.389 130.304C297.557 130.539 144.192 191.403 144.192 191.403C132.789 195.85 123.055 203.74 116.345 213.976C109.634 224.212 106.281 236.285 106.75 248.516C107.219 260.747 111.488 272.527 118.964 282.219C126.439 291.91 136.748 299.032 148.459 302.592L198.507 315.115L214.997 368.96C219.385 379.722 226.882 388.931 236.531 395.411C246.179 401.89 257.541 405.345 269.163 405.333H270.101C281.9 405.181 293.376 401.46 303.018 394.659C312.66 387.857 320.016 378.296 324.117 367.232C324.117 367.232 381.568 214.379 381.717 213.632C384.743 202.098 384.695 189.974 381.577 178.464C378.46 166.955 372.383 156.463 363.95 148.033C355.518 139.603 345.024 133.528 333.514 130.414C322.005 127.3 309.88 127.254 298.347 130.283L298.389 130.304ZM340.693 201.963L284.203 352.213C283.115 355.262 281.114 357.901 278.473 359.772C275.831 361.642 272.677 362.653 269.44 362.667C267.307 362.411 258.24 362.112 255.04 354.603L235.669 291.115C234.599 287.593 232.636 284.409 229.97 281.87C227.305 279.332 224.028 277.527 220.459 276.629L160.341 261.696C157.177 260.619 154.422 258.594 152.451 255.895C150.479 253.196 149.388 249.954 149.325 246.613C149.262 243.271 150.231 239.991 152.099 237.22C153.967 234.449 156.644 232.32 159.765 231.125L310.379 171.392C314.527 170.401 318.861 170.51 322.954 171.707C327.047 172.905 330.757 175.149 333.717 178.219C336.809 181.252 339.074 185.027 340.295 189.183C341.516 193.339 341.653 197.739 340.693 201.963ZM256 0C205.368 0 155.873 15.0141 113.774 43.1438C71.6751 71.2734 38.863 111.255 19.487 158.033C0.110922 204.811 -4.95873 256.284 4.91908 305.943C14.7969 355.602 39.1785 401.217 74.9808 437.019C110.783 472.822 156.398 497.203 206.057 507.081C255.716 516.959 307.189 511.889 353.967 492.513C400.745 473.137 440.727 440.325 468.856 398.226C496.986 356.127 512 306.632 512 256C511.927 188.127 484.932 123.055 436.938 75.0617C388.945 27.0683 323.873 0.0734097 256 0ZM256 469.333C213.807 469.333 172.561 456.822 137.478 433.38C102.396 409.939 75.0525 376.621 58.9058 337.639C42.7591 298.658 38.5344 255.763 46.7659 214.381C54.9974 172.998 75.3155 134.986 105.151 105.151C134.986 75.3154 172.998 54.9973 214.381 46.7658C255.763 38.5343 298.658 42.759 337.639 58.9057C376.621 75.0524 409.939 102.396 433.38 137.478C456.822 172.561 469.333 213.807 469.333 256C469.271 312.56 446.775 366.787 406.781 406.781C366.787 446.775 312.561 469.271 256 469.333Z" fill="#AEAEAE"/>
</svg>
