<svg width="512" height="512" viewBox="0 0 512 512" fill="none" xmlns="http://www.w3.org/2000/svg">
<path d="M298.667 149.333V9.81333C318.401 17.2658 336.326 28.828 351.253 43.7333L425.579 118.101C440.501 133.011 452.072 150.931 459.52 170.667H320C314.342 170.667 308.916 168.419 304.915 164.418C300.914 160.418 298.667 154.991 298.667 149.333ZM469.333 223.68V405.333C469.299 433.613 458.051 460.724 438.054 480.721C418.057 500.717 390.946 511.966 362.667 512H149.333C121.054 511.966 93.9425 500.717 73.946 480.721C53.9494 460.724 42.7005 433.613 42.6666 405.333V106.667C42.7005 78.3873 53.9494 51.2759 73.946 31.2794C93.9425 11.2828 121.054 0.0338743 149.333 0L245.653 0C249.131 0 252.565 0.277333 256 0.512V149.333C256 166.307 262.743 182.586 274.745 194.588C286.747 206.591 303.026 213.333 320 213.333H468.821C469.056 216.768 469.333 220.203 469.333 223.68ZM298.667 405.333C298.667 399.675 296.419 394.249 292.418 390.248C288.417 386.248 282.991 384 277.333 384H170.667C165.009 384 159.582 386.248 155.582 390.248C151.581 394.249 149.333 399.675 149.333 405.333C149.333 410.991 151.581 416.418 155.582 420.418C159.582 424.419 165.009 426.667 170.667 426.667H277.333C282.991 426.667 288.417 424.419 292.418 420.418C296.419 416.418 298.667 410.991 298.667 405.333ZM362.667 320C362.667 314.342 360.419 308.916 356.418 304.915C352.417 300.914 346.991 298.667 341.333 298.667H170.667C165.009 298.667 159.582 300.914 155.582 304.915C151.581 308.916 149.333 314.342 149.333 320C149.333 325.658 151.581 331.084 155.582 335.085C159.582 339.086 165.009 341.333 170.667 341.333H341.333C346.991 341.333 352.417 339.086 356.418 335.085C360.419 331.084 362.667 325.658 362.667 320Z" fill="#F0474A"/>
</svg>
