<svg width="512" height="512" viewBox="0 0 512 512" fill="none" xmlns="http://www.w3.org/2000/svg">
<g clip-path="url(#clip0_27_20)">
<path d="M429.589 512C421.697 511.978 413.888 510.393 406.612 507.335C399.336 504.278 392.739 499.809 387.2 494.187L256 363.755L124.8 494.272C116.374 502.821 105.568 508.633 93.7903 510.95C82.0128 513.268 69.8102 511.983 58.7734 507.264C47.6271 502.781 38.0918 495.04 31.4126 485.054C24.7334 475.068 21.2207 463.299 21.3334 451.285V106.667C21.3334 78.3769 32.5715 51.2458 52.5754 31.2419C72.5793 11.2381 99.7103 0 128 0L384 0C398.008 0 411.878 2.75902 424.82 8.11952C437.761 13.48 449.52 21.337 459.425 31.2419C469.33 41.1469 477.187 52.9057 482.547 65.8471C487.908 78.7885 490.667 92.659 490.667 106.667V451.285C490.786 463.289 487.286 475.051 480.623 485.036C473.96 495.021 464.443 502.767 453.312 507.264C445.799 510.406 437.733 512.017 429.589 512ZM128 42.6667C111.026 42.6667 94.7476 49.4095 82.7453 61.4118C70.7429 73.4142 64.0001 89.6928 64.0001 106.667V451.285C63.9924 454.84 65.0384 458.318 67.006 461.278C68.9736 464.239 71.7745 466.55 75.0548 467.92C78.3352 469.29 81.948 469.656 85.4367 468.974C88.9254 468.291 92.1337 466.59 94.6561 464.085L241.067 318.571C245.064 314.597 250.471 312.367 256.107 312.367C261.743 312.367 267.15 314.597 271.147 318.571L417.387 464.043C419.909 466.548 423.117 468.249 426.606 468.931C430.095 469.614 433.708 469.247 436.988 467.877C440.268 466.507 443.069 464.196 445.037 461.236C447.004 458.275 448.051 454.798 448.043 451.243V106.667C448.043 89.6928 441.3 73.4142 429.298 61.4118C417.295 49.4095 401.017 42.6667 384.043 42.6667H128Z" fill="white"/>
<rect x="121" y="128" width="270" height="30" fill="white"/>
</g>
<defs>
<clipPath id="clip0_27_20">
<rect width="512" height="512" fill="white"/>
</clipPath>
</defs>
</svg>
